<?xml version="1.0" standalone="no"?><svg xmlns:xlink="http://www.w3.org/1999/xlink" xmlns="http://www.w3.org/2000/svg" viewBox="0 0 1000 199.99754901960785" preserveAspectRatio="xMaxYMax slice"><g transform="scale(0.8169934640522876)"><rect x="0" y="0" width="1224" height="244.8" fill="#ffffff"/><circle cx="61.2" cy="61.2" r="12.24" fill="#274be3"/><circle cx="183.60000000000002" cy="61.2" r="12.24" fill="#6882eb"/><circle cx="306" cy="61.2" r="12.24" fill="#ebeefc"/><circle cx="428.40000000000003" cy="61.2" r="12.24" fill="#ffd5df"/><circle cx="550.8" cy="61.2" r="12.24" fill="#ff698c"/><circle cx="673.2" cy="61.2" r="12.24" fill="#395ae5"/><circle cx="795.6" cy="61.2" r="12.24" fill="#ff416e"/><circle cx="918" cy="61.2" r="12.24" fill="#e7ebfc"/><circle cx="1040.4" cy="61.2" r="12.24" fill="#2348e2"/><circle cx="1162.8" cy="61.2" r="12.24" fill="#2e52e4"/><circle cx="61.2" cy="183.60000000000002" r="12.24" fill="#b1bff5"/><circle cx="183.60000000000002" cy="183.60000000000002" r="12.24" fill="#fffcfd"/><circle cx="306" cy="183.60000000000002" r="12.24" fill="#fff0f3"/><circle cx="428.40000000000003" cy="183.60000000000002" r="12.24" fill="#5773e9"/><circle cx="550.8" cy="183.60000000000002" r="12.24" fill="#ffe1e8"/><circle cx="673.2" cy="183.60000000000002" r="12.24" fill="#ff527b"/><circle cx="795.6" cy="183.60000000000002" r="12.24" fill="#92a5f1"/><circle cx="918" cy="183.60000000000002" r="12.24" fill="#ff6e90"/><circle cx="1040.4" cy="183.60000000000002" r="12.24" fill="#899df0"/><circle cx="1162.8" cy="183.60000000000002" r="12.24" fill="#506de8"/></g></svg>