<svg xmlns="http://www.w3.org/2000/svg" xmlns:xlink="http://www.w3.org/1999/xlink" width="500" zoomAndPan="magnify" viewBox="0 0 375 374.999991" height="500" preserveAspectRatio="xMidYMid meet" version="1.0"><defs><g/><clipPath id="22ace3c1b3"><path d="M 56.488281 151.464844 L 318.238281 151.464844 L 318.238281 223.464844 L 56.488281 223.464844 Z M 56.488281 151.464844 " clip-rule="nonzero"/></clipPath><clipPath id="bf4a8649ad"><path d="M 63.558594 158.238281 L 187.332031 158.238281 L 187.332031 216.761719 L 63.558594 216.761719 Z M 63.558594 158.238281 " clip-rule="nonzero"/></clipPath></defs><rect x="-37.5" width="450" fill="#ffffff" y="-37.499999" height="449.999989" fill-opacity="1"/><rect x="-37.5" width="450" fill="#ffffff" y="-37.499999" height="449.999989" fill-opacity="1"/><g clip-path="url(#22ace3c1b3)"><path stroke-linecap="butt" transform="matrix(0.750202, 0, 0, 0.749268, 56.489269, 151.465449)" fill="none" stroke-linejoin="miter" d="M -0.00131637 -0.000808127 L 348.904932 -0.000808127 L 348.904932 96.092952 L -0.00131637 96.092952 Z M -0.00131637 -0.000808127 " stroke="#000000" stroke-width="6" stroke-opacity="1" stroke-miterlimit="4"/></g><g clip-path="url(#bf4a8649ad)"><path fill="#000000" d="M 63.558594 158.238281 L 187.332031 158.238281 L 187.332031 216.761719 L 63.558594 216.761719 Z M 63.558594 158.238281 " fill-opacity="1" fill-rule="nonzero"/></g><g fill="#ffffff" fill-opacity="1"><g transform="translate(87.852852, 198.118259)"><g><path d="M 16.125 4.671875 C 14.46875 4.671875 13.082031 4.285156 11.96875 3.515625 C 10.851562 2.753906 10.070312 1.648438 9.625 0.203125 C 8.113281 0.015625 6.789062 -0.476562 5.65625 -1.28125 C 4.519531 -2.09375 3.625 -3.234375 2.96875 -4.703125 C 2.320312 -6.171875 2 -7.945312 2 -10.03125 C 2 -12.320312 2.382812 -14.238281 3.15625 -15.78125 C 3.9375 -17.320312 5.003906 -18.46875 6.359375 -19.21875 C 7.710938 -19.96875 9.257812 -20.34375 11 -20.34375 C 12.738281 -20.34375 14.285156 -19.96875 15.640625 -19.21875 C 16.992188 -18.46875 18.054688 -17.320312 18.828125 -15.78125 C 19.609375 -14.238281 20 -12.320312 20 -10.03125 C 20 -6.894531 19.289062 -4.503906 17.875 -2.859375 C 16.457031 -1.210938 14.519531 -0.238281 12.0625 0.0625 L 11.96875 0.34375 C 12.300781 1.101562 12.832031 1.675781 13.5625 2.0625 C 14.300781 2.445312 15.164062 2.640625 16.15625 2.640625 C 16.65625 2.640625 17.128906 2.570312 17.578125 2.4375 L 17.84375 2.5 L 18.1875 4.328125 C 17.632812 4.554688 16.945312 4.671875 16.125 4.671875 Z M 11 -1.890625 C 13.082031 -1.890625 14.679688 -2.539062 15.796875 -3.84375 C 16.910156 -5.144531 17.46875 -7.207031 17.46875 -10.03125 C 17.46875 -12.84375 16.910156 -14.898438 15.796875 -16.203125 C 14.679688 -17.503906 13.082031 -18.15625 11 -18.15625 C 6.6875 -18.15625 4.53125 -15.445312 4.53125 -10.03125 C 4.53125 -4.601562 6.6875 -1.890625 11 -1.890625 Z M 11 -1.890625 "/></g></g></g><g fill="#ffffff" fill-opacity="1"><g transform="translate(111.978523, 198.118259)"><g><path d="M 10.34375 0.28125 C 7.882812 0.28125 6.019531 -0.335938 4.75 -1.578125 C 3.488281 -2.828125 2.859375 -4.679688 2.859375 -7.140625 L 2.859375 -20.0625 L 5.21875 -20.0625 L 5.21875 -7.15625 C 5.21875 -5.40625 5.640625 -4.085938 6.484375 -3.203125 C 7.328125 -2.328125 8.613281 -1.890625 10.34375 -1.890625 C 13.757812 -1.890625 15.46875 -3.644531 15.46875 -7.15625 L 15.46875 -20.0625 L 17.8125 -20.0625 L 17.8125 -7.140625 C 17.8125 -4.679688 17.179688 -2.828125 15.921875 -1.578125 C 14.660156 -0.335938 12.800781 0.28125 10.34375 0.28125 Z M 10.34375 0.28125 "/></g></g></g><g fill="#ffffff" fill-opacity="1"><g transform="translate(134.774323, 198.118259)"><g><path d="M 5.390625 0 L 3.03125 0 L 3.03125 -20.0625 L 5.390625 -20.0625 Z M 5.390625 0 "/></g></g></g><g fill="#ffffff" fill-opacity="1"><g transform="translate(145.340784, 198.118259)"><g><path d="M 3.03125 0 L 3.03125 -20.0625 L 5.390625 -20.0625 L 5.390625 -11.296875 L 5.8125 -11.296875 L 14.046875 -20.0625 L 16.625 -20.0625 L 16.625 -19.71875 L 7.9375 -10.34375 L 17.3125 -0.34375 L 17.3125 0 L 14.609375 0 L 5.8125 -9.234375 L 5.390625 -9.234375 L 5.390625 0 Z M 3.03125 0 "/></g></g></g><g fill="#000000" fill-opacity="1"><g transform="translate(223.96334, 198.45488)"><g><path d="M 5.390625 -20.0625 L 5.390625 -1.953125 L 15.046875 -1.953125 L 15.046875 0 L 3.03125 0 L 3.03125 -20.0625 Z M 5.390625 -20.0625 "/></g></g></g><g fill="#000000" fill-opacity="1"><g transform="translate(239.857194, 198.45488)"><g><path d="M 5.390625 0 L 3.03125 0 L 3.03125 -20.0625 L 5.390625 -20.0625 Z M 5.390625 0 "/></g></g></g><g fill="#000000" fill-opacity="1"><g transform="translate(248.29095, 198.45488)"><g><path d="M 8.765625 0.28125 C 7.503906 0.28125 6.375 0.113281 5.375 -0.21875 C 4.375 -0.5625 3.535156 -1.015625 2.859375 -1.578125 C 2.191406 -2.140625 1.695312 -2.753906 1.375 -3.421875 L 2.65625 -4.984375 L 3 -4.984375 C 4.25 -2.890625 6.171875 -1.84375 8.765625 -1.84375 C 10.273438 -1.84375 11.394531 -2.15625 12.125 -2.78125 C 12.863281 -3.414062 13.234375 -4.296875 13.234375 -5.421875 C 13.234375 -6.078125 13.113281 -6.632812 12.875 -7.09375 C 12.632812 -7.550781 12.234375 -7.941406 11.671875 -8.265625 C 11.117188 -8.585938 10.359375 -8.867188 9.390625 -9.109375 L 7.046875 -9.6875 C 5.304688 -10.101562 4.019531 -10.769531 3.1875 -11.6875 C 2.363281 -12.613281 1.953125 -13.78125 1.953125 -15.1875 C 1.953125 -16.1875 2.207031 -17.078125 2.71875 -17.859375 C 3.226562 -18.640625 3.976562 -19.25 4.96875 -19.6875 C 5.957031 -20.125 7.132812 -20.34375 8.5 -20.34375 C 10.007812 -20.34375 11.28125 -20.128906 12.3125 -19.703125 C 13.351562 -19.273438 14.1875 -18.640625 14.8125 -17.796875 L 13.65625 -16.234375 L 13.3125 -16.234375 C 12.738281 -16.941406 12.054688 -17.457031 11.265625 -17.78125 C 10.484375 -18.113281 9.5625 -18.28125 8.5 -18.28125 C 7.113281 -18.28125 6.066406 -18.007812 5.359375 -17.46875 C 4.648438 -16.9375 4.296875 -16.191406 4.296875 -15.234375 C 4.296875 -14.328125 4.554688 -13.609375 5.078125 -13.078125 C 5.597656 -12.546875 6.472656 -12.132812 7.703125 -11.84375 L 10.109375 -11.265625 C 12.054688 -10.804688 13.46875 -10.101562 14.34375 -9.15625 C 15.21875 -8.207031 15.65625 -7 15.65625 -5.53125 C 15.65625 -4.394531 15.398438 -3.390625 14.890625 -2.515625 C 14.378906 -1.640625 13.609375 -0.953125 12.578125 -0.453125 C 11.546875 0.0351562 10.273438 0.28125 8.765625 0.28125 Z M 8.765625 0.28125 "/></g></g></g><g fill="#000000" fill-opacity="1"><g transform="translate(265.473865, 198.45488)"><g><path d="M 15.65625 -20.0625 L 15.65625 -18.046875 L 9.375 -18.046875 L 9.375 0 L 7.03125 0 L 7.03125 -18.046875 L 0.734375 -18.046875 L 0.734375 -20.0625 Z M 15.65625 -20.0625 "/></g></g></g></svg>