<svg xmlns="http://www.w3.org/2000/svg" xmlns:xlink="http://www.w3.org/1999/xlink" width="511" zoomAndPan="magnify" viewBox="0 0 383.25 103.5" height="138" preserveAspectRatio="xMidYMid meet" version="1.0"><defs><g/><clipPath id="ae8ed9965f"><path d="M 0.96875 0.519531 L 371.179688 0.519531 L 371.179688 102.777344 L 0.96875 102.777344 Z M 0.96875 0.519531 " clip-rule="nonzero"/></clipPath><clipPath id="19fd3a2614"><path d="M 10.964844 10.097656 L 186 10.097656 L 186 92.863281 L 10.964844 92.863281 Z M 10.964844 10.097656 " clip-rule="nonzero"/></clipPath></defs><g clip-path="url(#ae8ed9965f)"><path stroke-linecap="butt" transform="matrix(0.7467, 0, 0, 0.748871, 0.966892, 0.519977)" fill="none" stroke-linejoin="miter" d="M 0.00248766 -0.000595437 L 495.798577 -0.000595437 L 495.798577 136.548687 L 0.00248766 136.548687 Z M 0.00248766 -0.000595437 " stroke="#000000" stroke-width="6" stroke-opacity="1" stroke-miterlimit="4"/></g><g clip-path="url(#19fd3a2614)"><path fill="#000000" d="M 10.964844 10.097656 L 186 10.097656 L 186 92.863281 L 10.964844 92.863281 Z M 10.964844 10.097656 " fill-opacity="1" fill-rule="nonzero"/></g><g fill="#ffffff" fill-opacity="1"><g transform="translate(45.319884, 66.495294)"><g><path d="M 22.8125 6.609375 C 20.457031 6.609375 18.492188 6.066406 16.921875 4.984375 C 15.347656 3.898438 14.242188 2.335938 13.609375 0.296875 C 11.484375 0.0234375 9.613281 -0.675781 8 -1.8125 C 6.382812 -2.957031 5.117188 -4.566406 4.203125 -6.640625 C 3.285156 -8.710938 2.828125 -11.222656 2.828125 -14.171875 C 2.828125 -17.421875 3.375 -20.132812 4.46875 -22.3125 C 5.570312 -24.488281 7.082031 -26.109375 9 -27.171875 C 10.914062 -28.234375 13.097656 -28.765625 15.546875 -28.765625 C 18.003906 -28.765625 20.191406 -28.234375 22.109375 -27.171875 C 24.023438 -26.109375 25.53125 -24.488281 26.625 -22.3125 C 27.726562 -20.132812 28.28125 -17.421875 28.28125 -14.171875 C 28.28125 -9.742188 27.273438 -6.363281 25.265625 -4.03125 C 23.265625 -1.707031 20.523438 -0.335938 17.046875 0.078125 L 16.9375 0.484375 C 17.394531 1.554688 18.144531 2.363281 19.1875 2.90625 C 20.226562 3.445312 21.445312 3.71875 22.84375 3.71875 C 23.550781 3.71875 24.21875 3.628906 24.84375 3.453125 L 25.234375 3.53125 L 25.71875 6.109375 C 24.9375 6.441406 23.96875 6.609375 22.8125 6.609375 Z M 15.546875 -2.671875 C 18.492188 -2.671875 20.753906 -3.59375 22.328125 -5.4375 C 23.910156 -7.28125 24.703125 -10.191406 24.703125 -14.171875 C 24.703125 -18.160156 23.910156 -21.070312 22.328125 -22.90625 C 20.753906 -24.75 18.492188 -25.671875 15.546875 -25.671875 C 9.453125 -25.671875 6.40625 -21.835938 6.40625 -14.171875 C 6.40625 -6.503906 9.453125 -2.671875 15.546875 -2.671875 Z M 15.546875 -2.671875 "/></g></g></g><g fill="#ffffff" fill-opacity="1"><g transform="translate(79.437337, 66.495294)"><g><path d="M 14.625 0.40625 C 11.144531 0.40625 8.507812 -0.472656 6.71875 -2.234375 C 4.9375 -4.003906 4.046875 -6.617188 4.046875 -10.078125 L 4.046875 -28.359375 L 7.375 -28.359375 L 7.375 -10.125 C 7.375 -7.644531 7.96875 -5.78125 9.15625 -4.53125 C 10.351562 -3.289062 12.175781 -2.671875 14.625 -2.671875 C 19.457031 -2.671875 21.875 -5.15625 21.875 -10.125 L 21.875 -28.359375 L 25.1875 -28.359375 L 25.1875 -10.078125 C 25.1875 -6.617188 24.296875 -4.003906 22.515625 -2.234375 C 20.734375 -0.472656 18.101562 0.40625 14.625 0.40625 Z M 14.625 0.40625 "/></g></g></g><g fill="#ffffff" fill-opacity="1"><g transform="translate(111.674145, 66.495294)"><g><path d="M 7.625 0 L 4.28125 0 L 4.28125 -28.359375 L 7.625 -28.359375 Z M 7.625 0 "/></g></g></g><g fill="#ffffff" fill-opacity="1"><g transform="translate(126.616765, 66.495294)"><g><path d="M 4.28125 0 L 4.28125 -28.359375 L 7.625 -28.359375 L 7.625 -15.96875 L 8.21875 -15.96875 L 19.859375 -28.359375 L 23.5 -28.359375 L 23.5 -27.875 L 11.234375 -14.625 L 24.46875 -0.484375 L 24.46875 0 L 20.65625 0 L 8.21875 -13.046875 L 7.625 -13.046875 L 7.625 0 Z M 4.28125 0 "/></g></g></g><g fill="#000000" fill-opacity="1"><g transform="translate(237.80129, 66.971335)"><g><path d="M 7.625 -28.359375 L 7.625 -2.75 L 21.28125 -2.75 L 21.28125 0 L 4.28125 0 L 4.28125 -28.359375 Z M 7.625 -28.359375 "/></g></g></g><g fill="#000000" fill-opacity="1"><g transform="translate(260.277674, 66.971335)"><g><path d="M 7.625 0 L 4.28125 0 L 4.28125 -28.359375 L 7.625 -28.359375 Z M 7.625 0 "/></g></g></g><g fill="#000000" fill-opacity="1"><g transform="translate(272.204318, 66.971335)"><g><path d="M 12.390625 0.40625 C 10.609375 0.40625 9.007812 0.164062 7.59375 -0.3125 C 6.175781 -0.800781 4.992188 -1.4375 4.046875 -2.21875 C 3.109375 -3.007812 2.40625 -3.878906 1.9375 -4.828125 L 3.765625 -7.046875 L 4.25 -7.046875 C 6.007812 -4.078125 8.722656 -2.59375 12.390625 -2.59375 C 14.523438 -2.59375 16.113281 -3.039062 17.15625 -3.9375 C 18.195312 -4.832031 18.71875 -6.070312 18.71875 -7.65625 C 18.71875 -8.59375 18.546875 -9.382812 18.203125 -10.03125 C 17.859375 -10.675781 17.289062 -11.226562 16.5 -11.6875 C 15.71875 -12.144531 14.644531 -12.539062 13.28125 -12.875 L 9.96875 -13.6875 C 7.5 -14.28125 5.675781 -15.226562 4.5 -16.53125 C 3.332031 -17.832031 2.75 -19.476562 2.75 -21.46875 C 2.75 -22.875 3.109375 -24.128906 3.828125 -25.234375 C 4.554688 -26.347656 5.617188 -27.210938 7.015625 -27.828125 C 8.410156 -28.453125 10.082031 -28.765625 12.03125 -28.765625 C 14.15625 -28.765625 15.953125 -28.460938 17.421875 -27.859375 C 18.890625 -27.253906 20.066406 -26.351562 20.953125 -25.15625 L 19.3125 -22.96875 L 18.828125 -22.96875 C 18.015625 -23.957031 17.050781 -24.6875 15.9375 -25.15625 C 14.832031 -25.625 13.53125 -25.859375 12.03125 -25.859375 C 10.0625 -25.859375 8.570312 -25.472656 7.5625 -24.703125 C 6.5625 -23.941406 6.0625 -22.890625 6.0625 -21.546875 C 6.0625 -20.265625 6.429688 -19.242188 7.171875 -18.484375 C 7.910156 -17.734375 9.15625 -17.148438 10.90625 -16.734375 L 14.296875 -15.921875 C 17.046875 -15.273438 19.035156 -14.28125 20.265625 -12.9375 C 21.503906 -11.601562 22.125 -9.894531 22.125 -7.8125 C 22.125 -6.207031 21.765625 -4.785156 21.046875 -3.546875 C 20.328125 -2.316406 19.238281 -1.347656 17.78125 -0.640625 C 16.320312 0.0546875 14.523438 0.40625 12.390625 0.40625 Z M 12.390625 0.40625 "/></g></g></g><g fill="#000000" fill-opacity="1"><g transform="translate(296.503635, 66.971335)"><g><path d="M 22.125 -28.359375 L 22.125 -25.515625 L 13.25 -25.515625 L 13.25 0 L 9.9375 0 L 9.9375 -25.515625 L 1.046875 -25.515625 L 1.046875 -28.359375 Z M 22.125 -28.359375 "/></g></g></g></svg>